<svg xmlns="http://www.w3.org/2000/svg" xmlns:xlink="http://www.w3.org/1999/xlink" width="370" height="246" viewBox="0 0 370 246">
  <defs>
    <filter id="Rectangle_2942" x="281" y="24" width="78" height="78" filterUnits="userSpaceOnUse">
      <feOffset dy="3" input="SourceAlpha"/>
      <feGaussianBlur stdDeviation="3" result="blur"/>
      <feFlood flood-opacity="0.161"/>
      <feComposite operator="in" in2="blur"/>
      <feComposite in="SourceGraphic"/>
    </filter>
  </defs>
  <g id="direct_interaction_" data-name="direct interaction " transform="translate(-615 -1116)">
    <rect id="Rectangle_4244" data-name="Rectangle 4244" width="370" height="246" rx="20" transform="translate(615 1116)" fill="#162542"/>
    <text id="تعامل_مباشر" data-name="تعامل مباشر" transform="translate(965 1240)" fill="#fff" font-size="18" font-family="SegoeUI-Bold, Segoe UI" font-weight="700"><tspan x="-90.65" y="0">تعامل مباشر</tspan></text>
    <text id="تاريخنــا_حافــل_بتقديــم_منظومــات_مميزة_مـن_الحلـول_...المبتكـرة_للكيانـات_الرائــدة_مــن_شــركات" data-name="تاريخنــا حافــل بتقديــم منظومــات  مميزة مـن الحلـول
...المبتكـرة للكيانـات الرائــدة مــن شــركات" transform="translate(965 1294)" fill="#fff" font-size="14" font-family="SegoeUI, Segoe UI"><tspan x="-294.561" y="0" xml:space="preserve">تاريخنــا حافــل بتقديــم منظومــات  مميزة مـن الحلـول</tspan><tspan y="0"></tspan><tspan x="-225.511" y="25">...</tspan><tspan y="25">المبتكـرة للكيانـات الرائــدة مــن شــركات</tspan></text>
    <g id="Group_16973" data-name="Group 16973" transform="translate(-382.156 -2017)">
      <g transform="matrix(1, 0, 0, 1, 997.16, 3133)" filter="url(#Rectangle_2942)">
        <rect id="Rectangle_2942-2" data-name="Rectangle 2942" width="60" height="60" rx="10" transform="translate(290 30)" fill="#fff" opacity="0.1"/>
      </g>
      <g id="noun_deal_1073908" transform="translate(1292.868 3176)">
        <g id="Group_16978" data-name="Group 16978" transform="translate(10.288)">
          <path id="Path_23583" data-name="Path 23583" d="M36.585,23.375H34.364V22.336a1,1,0,0,0-1.008-.859V11.948a1.568,1.568,0,0,0-3.136,0v9.529a1,1,0,0,0-1.008.859v1.039H26.99a.925.925,0,0,0-.924.924v6.107a.925.925,0,0,0,.924.924h9.6a.924.924,0,0,0,.924-.924V24.3A.925.925,0,0,0,36.585,23.375Zm-3.166,0H30.154v-.78a.447.447,0,0,1,.246-.385,1.568,1.568,0,0,0,2.773,0,.446.446,0,0,1,.246.385v.78ZM12.041,3.461A3.461,3.461,0,1,1,15.5,6.922,3.461,3.461,0,0,1,12.041,3.461Zm16.286,0a3.461,3.461,0,1,1,3.461,3.461A3.461,3.461,0,0,1,28.326,3.461Zm-3.66,11.433a1.488,1.488,0,0,1-1.487,1.488h-5.53a1.489,1.489,0,0,1-1.217-.631l-2.764-3.927A1.488,1.488,0,0,1,16.1,10.111l2.319,3.3h4.758A1.488,1.488,0,0,1,24.667,14.894ZM20.761,32.076a1.862,1.862,0,0,1-3.663.672L15.54,23.343l-1.558,9.405a1.862,1.862,0,0,1-3.663-.672l1.6-9.661,0-11.24a3.547,3.547,0,0,1,7.095,0v1.883h-.221L16.554,9.815a2,2,0,0,0-2.867-.385,1.868,1.868,0,0,0-.4,2.731L16,16.119a1.851,1.851,0,0,0,1.647.834h1.54s0,5.627,0,5.627ZM28.1,16.382H24.569a1.962,1.962,0,0,0,0-2.976H28.1V11.174a3.541,3.541,0,1,1,7.081,0l0,11.845H34.72v-.682a1.218,1.218,0,0,0-.741-1.119V11.891a2.192,2.192,0,1,0-4.385,0v9.326a1.218,1.218,0,0,0-.741,1.119v.682H28.1ZM26.99,31.688h3.3l-.175,1.06a1.862,1.862,0,0,1-3.663-.672l.078-.474A1.271,1.271,0,0,0,26.99,31.688Zm9.905.388a1.862,1.862,0,0,1-3.663.672l-.176-1.06h3.529a1.272,1.272,0,0,0,.241-.023Z" transform="translate(-10.288)" fill="#fff"/>
        </g>
      </g>
    </g>
    <rect id="Rectangle_4246" data-name="Rectangle 4246" width="40" height="3" transform="translate(925 1258)" fill="#fff"/>
    <g id="noun_deal_1073908-2" data-name="noun_deal_1073908" transform="translate(626.096 1131.727)" opacity="0.05">
      <g id="Group_16978-2" data-name="Group 16978" transform="translate(10.288)">
        <path id="Path_23583-2" data-name="Path 23583" d="M88.76,69.752H82.131v-3.1c0-1.414-1.6-2.563-3.009-2.563V35.654a4.679,4.679,0,0,0-9.357,0V64.089c-1.414,0-3.009,1.149-3.009,2.563v3.1H60.128A2.759,2.759,0,0,0,57.37,72.51V90.733a2.76,2.76,0,0,0,2.758,2.758H88.762a2.758,2.758,0,0,0,2.757-2.758V72.51A2.761,2.761,0,0,0,88.76,69.752Zm-9.446,0H69.57V67.423a1.334,1.334,0,0,1,.735-1.148,4.679,4.679,0,0,0,8.274,0,1.332,1.332,0,0,1,.735,1.148v2.329Zm-63.8-59.423A10.328,10.328,0,1,1,25.846,20.656,10.328,10.328,0,0,1,15.518,10.329Zm48.6,0A10.328,10.328,0,1,1,74.442,20.657,10.327,10.327,0,0,1,64.115,10.329ZM53.194,44.444a4.439,4.439,0,0,1-4.439,4.44h-16.5A4.442,4.442,0,0,1,28.622,47L20.374,35.281a4.44,4.44,0,0,1,7.261-5.111L34.557,40h14.2A4.439,4.439,0,0,1,53.194,44.444ZM41.54,95.714A5.557,5.557,0,0,1,30.609,97.72L25.96,69.655,21.311,97.72A5.557,5.557,0,0,1,10.38,95.714l4.775-28.83-.009-33.541a10.585,10.585,0,0,1,21.171,0l0,5.62h-.661l-6.667-9.675a5.977,5.977,0,0,0-8.555-1.148,5.574,5.574,0,0,0-1.187,8.149l8.1,11.81a5.525,5.525,0,0,0,4.915,2.489h4.6s0,16.792-.007,16.792Zm21.894-46.83H52.9A5.854,5.854,0,0,0,52.9,40H63.429l0-6.662a10.565,10.565,0,1,1,21.131,0L84.55,68.687H83.195V66.652a3.636,3.636,0,0,0-2.21-3.34V35.483a6.542,6.542,0,1,0-13.084,0V63.312a3.634,3.634,0,0,0-2.211,3.34v2.035H63.437ZM60.126,94.557h9.852l-.524,3.162a5.556,5.556,0,0,1-10.93-2.006l.234-1.413A3.792,3.792,0,0,0,60.126,94.557Zm29.557,1.157a5.556,5.556,0,0,1-10.93,2.006l-.525-3.162H88.76a3.794,3.794,0,0,0,.72-.07Z" transform="translate(-10.288)" fill="#fff"/>
      </g>
    </g>
    <path id="Polygon_7" data-name="Polygon 7" d="M8.316.778a1,1,0,0,1,1.459,0l6.738,7.187a1,1,0,0,1-.73,1.684H2.308a1,1,0,0,1-.73-1.684Z" transform="translate(644.302 1347.058) rotate(-146)" fill="#fff"/>
  </g>
</svg>
