<svg id="Group_17010" data-name="Group 17010" xmlns="http://www.w3.org/2000/svg" width="25.455" height="32" viewBox="0 0 25.455 32">
  <path id="Path_23596" data-name="Path 23596" d="M31.41,24.053h4.862a7.922,7.922,0,0,1-2.969,5.9L33.853,37H16.973l.229-7.045c-3.524-2.6-2.967-7.418-2.967-7.418V17.981a3.57,3.57,0,0,0,5.377-.709,3.576,3.576,0,0,0,5.99,0,3.6,3.6,0,0,0,1.458,1.271,4.4,4.4,0,0,0-.126,1.035A4.479,4.479,0,0,0,31.41,24.053Zm.772-8.949H36.36a4.341,4.341,0,0,1,.638.051V7.407a2.408,2.408,0,0,0-4.816,0Zm-4.7,2.338a4.482,4.482,0,0,1,3.527-2.318V7.407a2.408,2.408,0,0,0-4.815,0v7.9A2.41,2.41,0,0,0,27.48,17.442Zm-2.464-2.13v-7.9a2.408,2.408,0,0,0-4.815,0v7.9a2.408,2.408,0,1,0,4.815,0Zm-5.991,0V9.975a2.407,2.407,0,1,0-4.815,0v5.336a2.407,2.407,0,1,0,4.815,0Zm17.335.967H31.41a3.3,3.3,0,0,0,0,6.6h4.95a3.3,3.3,0,0,0,0-6.6Z" transform="translate(-14.204 -5)" fill="#d2a76b"/>
</svg>
