<svg xmlns="http://www.w3.org/2000/svg" xmlns:xlink="http://www.w3.org/1999/xlink" width="78" height="78" viewBox="0 0 78 78">
  <defs>
    <filter id="Rectangle_2942" x="0" y="0" width="78" height="78" filterUnits="userSpaceOnUse">
      <feOffset dy="3" input="SourceAlpha"/>
      <feGaussianBlur stdDeviation="3" result="blur"/>
      <feFlood flood-opacity="0.161"/>
      <feComposite operator="in" in2="blur"/>
      <feComposite in="SourceGraphic"/>
    </filter>
  </defs>
  <g id="Group_16973" data-name="Group 16973" transform="translate(-1278.156 -3157)">
    <g transform="matrix(1, 0, 0, 1, 1278.16, 3157)" filter="url(#Rectangle_2942)">
      <rect id="Rectangle_2942-2" data-name="Rectangle 2942" width="60" height="60" rx="10" transform="translate(9 6)" fill="#fff" opacity="0.1"/>
    </g>
    <g id="noun_deal_1073908" transform="translate(1292.868 3176)">
      <g id="Group_16978" data-name="Group 16978" transform="translate(10.288)">
        <path id="Path_23583" data-name="Path 23583" d="M36.585,23.375H34.364V22.336a1,1,0,0,0-1.008-.859V11.948a1.568,1.568,0,0,0-3.136,0v9.529a1,1,0,0,0-1.008.859v1.039H26.99a.925.925,0,0,0-.924.924v6.107a.925.925,0,0,0,.924.924h9.6a.924.924,0,0,0,.924-.924V24.3A.925.925,0,0,0,36.585,23.375Zm-3.166,0H30.154v-.78a.447.447,0,0,1,.246-.385,1.568,1.568,0,0,0,2.773,0,.446.446,0,0,1,.246.385v.78ZM12.041,3.461A3.461,3.461,0,1,1,15.5,6.922,3.461,3.461,0,0,1,12.041,3.461Zm16.286,0a3.461,3.461,0,1,1,3.461,3.461A3.461,3.461,0,0,1,28.326,3.461Zm-3.66,11.433a1.488,1.488,0,0,1-1.487,1.488h-5.53a1.489,1.489,0,0,1-1.217-.631l-2.764-3.927A1.488,1.488,0,0,1,16.1,10.111l2.319,3.3h4.758A1.488,1.488,0,0,1,24.667,14.894ZM20.761,32.076a1.862,1.862,0,0,1-3.663.672L15.54,23.343l-1.558,9.405a1.862,1.862,0,0,1-3.663-.672l1.6-9.661,0-11.24a3.547,3.547,0,0,1,7.095,0v1.883h-.221L16.554,9.815a2,2,0,0,0-2.867-.385,1.868,1.868,0,0,0-.4,2.731L16,16.119a1.851,1.851,0,0,0,1.647.834h1.54s0,5.627,0,5.627ZM28.1,16.382H24.569a1.962,1.962,0,0,0,0-2.976H28.1V11.174a3.541,3.541,0,1,1,7.081,0l0,11.845H34.72v-.682a1.218,1.218,0,0,0-.741-1.119V11.891a2.192,2.192,0,1,0-4.385,0v9.326a1.218,1.218,0,0,0-.741,1.119v.682H28.1ZM26.99,31.688h3.3l-.175,1.06a1.862,1.862,0,0,1-3.663-.672l.078-.474A1.271,1.271,0,0,0,26.99,31.688Zm9.905.388a1.862,1.862,0,0,1-3.663.672l-.176-1.06h3.529a1.272,1.272,0,0,0,.241-.023Z" transform="translate(-10.288)" fill="#fff"/>
      </g>
    </g>
  </g>
</svg>
