<svg xmlns="http://www.w3.org/2000/svg" width="60.156" height="63" viewBox="0 0 60.156 63">
  <g id="Group_16974" data-name="Group 16974" transform="translate(-1287 -3163)">
    <path id="Path_23577" data-name="Path 23577" d="M8.108,0H51.892C56.37,0,60,4.012,60,8.961v.9c0,4.949-3.63,8.961-8.108,8.961H8.108C3.63,18.818,0,14.806,0,9.857v-.9C0,4.012,3.63,0,8.108,0Z" transform="translate(1287 3207.182)" fill="#d2a76b"/>
    <rect id="Rectangle_2942" data-name="Rectangle 2942" width="60" height="60" rx="10" transform="translate(1287.156 3163)" fill="#fff"/>
    <g id="noun_Light_1570737" transform="translate(1295.156 3175)">
      <g id="Group_10344" data-name="Group 10344" transform="translate(8 2)">
        <path id="Path_18962" data-name="Path 18962" d="M22,954.362a.667.667,0,0,0-.667.667V957.7a.667.667,0,1,0,1.333,0v-2.667A.667.667,0,0,0,22,954.362Zm-9.427,3.906A.667.667,0,0,0,12.1,959.4l1.885,1.885a.663.663,0,1,0,.937-.938l-1.885-1.885A.661.661,0,0,0,12.573,958.268Zm18.854,0a.661.661,0,0,0-.469.2l-1.885,1.885a.663.663,0,0,0,.937.938L31.9,959.4a.667.667,0,0,0-.469-1.135ZM22,960.362c-4.065,0-8,3.154-8,7.615,0,5.788,4.333,7,4.333,11.052h7.333c0-4.052,4.333-5.264,4.333-11.052,0-4.461-3.935-7.615-8-7.615Zm-2.052,2.021h.062a.667.667,0,0,1,.229,1.292,5.01,5.01,0,0,0-3.156,3.8.667.667,0,1,1-1.313-.24,6.313,6.313,0,0,1,3.99-4.8.664.664,0,0,1,.188-.052ZM8.667,967.7a.667.667,0,1,0,0,1.333h2.667a.667.667,0,1,0,0-1.333Zm24,0a.667.667,0,1,0,0,1.333h2.667a.667.667,0,1,0,0-1.333ZM18.333,980.362V981.7h7.333v-1.333Zm0,2.667a1.335,1.335,0,0,0,1.333,1.333h4.667a1.335,1.335,0,0,0,1.333-1.333Zm2.333,2a1.333,1.333,0,0,0,2.667,0Z" transform="translate(-8 -954.362)" fill="#d2a76b"/>
      </g>
    </g>
  </g>
</svg>
