<svg xmlns="http://www.w3.org/2000/svg" width="81.231" height="102.274" viewBox="0 0 81.231 102.274">
  <g id="noun_deal_1073908" transform="translate(-10.288)" opacity="0.05">
    <g id="Group_16978" data-name="Group 16978" transform="translate(10.288)">
      <path id="Path_23583" data-name="Path 23583" d="M88.76,69.752H82.131v-3.1c0-1.414-1.6-2.563-3.009-2.563V35.654a4.679,4.679,0,0,0-9.357,0V64.089c-1.414,0-3.009,1.149-3.009,2.563v3.1H60.128A2.759,2.759,0,0,0,57.37,72.51V90.733a2.76,2.76,0,0,0,2.758,2.758H88.762a2.758,2.758,0,0,0,2.757-2.758V72.51A2.761,2.761,0,0,0,88.76,69.752Zm-9.446,0H69.57V67.423a1.334,1.334,0,0,1,.735-1.148,4.679,4.679,0,0,0,8.274,0,1.332,1.332,0,0,1,.735,1.148v2.329Zm-63.8-59.423A10.328,10.328,0,1,1,25.846,20.656,10.328,10.328,0,0,1,15.518,10.329Zm48.6,0A10.328,10.328,0,1,1,74.442,20.657,10.327,10.327,0,0,1,64.115,10.329ZM53.194,44.444a4.439,4.439,0,0,1-4.439,4.44h-16.5A4.442,4.442,0,0,1,28.622,47L20.374,35.281a4.44,4.44,0,0,1,7.261-5.111L34.557,40h14.2A4.439,4.439,0,0,1,53.194,44.444ZM41.54,95.714A5.557,5.557,0,0,1,30.609,97.72L25.96,69.655,21.311,97.72A5.557,5.557,0,0,1,10.38,95.714l4.775-28.83-.009-33.541a10.585,10.585,0,0,1,21.171,0l0,5.62h-.661l-6.667-9.675a5.977,5.977,0,0,0-8.555-1.148,5.574,5.574,0,0,0-1.187,8.149l8.1,11.81a5.525,5.525,0,0,0,4.915,2.489h4.6s0,16.792-.007,16.792Zm21.894-46.83H52.9A5.854,5.854,0,0,0,52.9,40H63.429l0-6.662a10.565,10.565,0,1,1,21.131,0L84.55,68.687H83.195V66.652a3.636,3.636,0,0,0-2.21-3.34V35.483a6.542,6.542,0,1,0-13.084,0V63.312a3.634,3.634,0,0,0-2.211,3.34v2.035H63.437ZM60.126,94.557h9.852l-.524,3.162a5.556,5.556,0,0,1-10.93-2.006l.234-1.413A3.792,3.792,0,0,0,60.126,94.557Zm29.557,1.157a5.556,5.556,0,0,1-10.93,2.006l-.525-3.162H88.76a3.794,3.794,0,0,0,.72-.07Z" transform="translate(-10.288)" fill="#fff"/>
    </g>
  </g>
</svg>
