<svg xmlns="http://www.w3.org/2000/svg" width="32" height="30.837" viewBox="0 0 32 30.837">
  <g id="noun_deadline_3188929" transform="translate(-32 -32)">
    <path id="Path_23625" data-name="Path 23625" d="M306.193,34.193V32H304v2.255a9.8,9.8,0,0,1,1.1-.062Z" transform="translate(-253.272)" fill="#d2a76b"/>
    <path id="Path_23626" data-name="Path 23626" d="M353.1,33.1A1.1,1.1,0,0,0,352,32v2.193A1.1,1.1,0,0,0,353.1,33.1Z" transform="translate(-297.97)" fill="#d2a76b"/>
    <circle id="Ellipse_974" data-name="Ellipse 974" cx="0.5" cy="0.5" r="0.5" transform="translate(36 42.755)" fill="#d2a76b"/>
    <path id="Path_23627" data-name="Path 23627" d="M153.22,46.662l1.09.953a9.679,9.679,0,0,1-.658-3.551,9.884,9.884,0,0,1,7.677-9.624V32H158.95a1.644,1.644,0,0,0-1.165.48L153.254,37a1.644,1.644,0,0,1-1.165.48H152v8.774h.137A1.657,1.657,0,0,1,153.22,46.662Z" transform="translate(-111.726)" fill="#d2a76b"/>
    <path id="Path_23628" data-name="Path 23628" d="M401.1,146.193h3.29a1.1,1.1,0,0,0,0-2.193H401.1a1.1,1.1,0,1,0,0,2.193Z" transform="translate(-342.642 -104.288)" fill="#d2a76b"/>
    <path id="Path_23629" data-name="Path 23629" d="M409.1,98.193h1.1a1.1,1.1,0,0,0,0-2.193h-1.1a1.1,1.1,0,1,0,0,2.193Z" transform="translate(-350.094 -59.613)" fill="#d2a76b"/>
    <path id="Path_23630" data-name="Path 23630" d="M194.549,94.836l-.007.007a8.769,8.769,0,0,0,12.4.062,8.866,8.866,0,0,0,.679-.754h-2.468a2.194,2.194,0,0,1-.727-4.263,2.2,2.2,0,0,1,.6-3.043,2.265,2.265,0,0,1,.5-.247,2.2,2.2,0,0,1,.6-3.043c.034-.021.062-.041.1-.062a2.186,2.186,0,0,1-.425-2.022,8.77,8.77,0,0,0-11.344,13.27Zm5.669-6.4v-6.9h1.1v7.355l-3.448,3.448-.775-.775Z" transform="translate(-148.935 -44.603)" fill="#d2a76b"/>
    <path id="Path_23631" data-name="Path 23631" d="M54.032,112H51.839v3.29h-1.1V112H48v8.774h6.032Zm-2.742,7.677a1.645,1.645,0,1,1,1.645-1.645A1.641,1.641,0,0,1,51.29,119.677Z" transform="translate(-14.903 -74.484)" fill="#d2a76b"/>
    <path id="Path_23632" data-name="Path 23632" d="M369.1,240a1.1,1.1,0,1,0,0,2.193h3.29a1.1,1.1,0,0,0,0-2.193Z" transform="translate(-312.835 -193.678)" fill="#d2a76b"/>
    <path id="Path_23633" data-name="Path 23633" d="M384,193.1a1.1,1.1,0,0,0,1.1,1.1h3.29a1.1,1.1,0,0,0,0-2.193H385.1A1.1,1.1,0,0,0,384,193.1Z" transform="translate(-327.739 -148.983)" fill="#d2a76b"/>
    <path id="Path_23634" data-name="Path 23634" d="M42.419,313.1H40.774V312h-1.1v1.1H35.29V312h-1.1v1.1H32.548a.55.55,0,0,0-.548.548v1.1H42.967v-1.1A.55.55,0,0,0,42.419,313.1Z" transform="translate(0 -260.719)" fill="#d2a76b"/>
    <path id="Path_23635" data-name="Path 23635" d="M32,375.129a.55.55,0,0,0,.548.548h9.87a.55.55,0,0,0,.548-.548V368H32Zm8.225-6.032h1.1v1.1h-1.1Zm0,2.193h1.1v1.1h-1.1Zm0,2.193h1.1v1.1h-1.1ZM38.032,369.1h1.1v1.1h-1.1Zm0,2.193h1.1v1.1h-1.1Zm0,2.193h1.1v1.1h-1.1ZM35.839,369.1h1.1v1.1h-1.1Zm0,2.193h1.1v1.1h-1.1Zm0,2.193h1.1v1.1h-1.1ZM33.645,369.1h1.1v1.1h-1.1Zm0,2.193h1.1v1.1h-1.1Zm0,2.193h1.1v1.1h-1.1Z" transform="translate(0 -312.84)" fill="#d2a76b"/>
    <path id="Path_23636" data-name="Path 23636" d="M238.794,277.232l-1.008-.432a12.07,12.07,0,0,1-15.834,6.382,12.669,12.669,0,0,1-1.577-.809l-.576.932a13.154,13.154,0,0,0,18.994-6.073Z" transform="translate(-174.794 -227.923)" fill="#d2a76b"/>
    <path id="Path_23637" data-name="Path 23637" d="M233.655,366.075a15.4,15.4,0,0,1-12.5-.089l-.452,1a16.448,16.448,0,0,0,18.72-3.633l-.8-.754A15.352,15.352,0,0,1,233.655,366.075Z" transform="translate(-175.632 -307.81)" fill="#d2a76b"/>
  </g>
</svg>
