<svg xmlns="http://www.w3.org/2000/svg" width="32.1" height="28" viewBox="0 0 32.1 28">
  <g id="noun_motivation_4065801" transform="translate(-2 -6.821)">
    <circle id="Ellipse_973" data-name="Ellipse 973" cx="3" cy="3" r="3" transform="translate(15 6.821)" fill="#d2a76b"/>
    <path id="Path_23622" data-name="Path 23622" d="M9.49,29.494H4.675a2.675,2.675,0,0,0,0,5.35h7.49v-1.07H4.675a1.605,1.605,0,0,1,0-3.21H9.49a2.675,2.675,0,1,0,0-5.35H4.675a1.605,1.605,0,0,1,0-3.21h3.21a.535.535,0,0,0,.535-.535V17.692A5.27,5.27,0,0,0,11.1,16.654l-4.317-1.84a2.574,2.574,0,1,1,1.969-4.756s4.28,1.5,4.441,1.557a5.35,5.35,0,1,0-5.837,6.11v3.21H4.675a2.675,2.675,0,0,0,0,5.35H9.49a1.605,1.605,0,1,1,0,3.21Z" transform="translate(0 -0.024)" fill="#d2a76b"/>
    <path id="Path_23623" data-name="Path 23623" d="M44.8,26.283h4.815a2.675,2.675,0,1,0,0-5.35H46.936v-3.21a5.35,5.35,0,1,0-5.826-6.1c.171-.053,4.478-1.568,4.478-1.568a2.541,2.541,0,0,1,2.359.273,2.573,2.573,0,0,1-.428,4.494l-4.328,1.835a5.286,5.286,0,0,0,2.675,1.027v3.788A.535.535,0,0,0,46.4,22h3.21a1.605,1.605,0,0,1,0,3.21H44.8a2.675,2.675,0,1,0,0,5.35h4.815a1.605,1.605,0,0,1,0,3.21h-7.49v1.07h7.49a2.675,2.675,0,1,0,0-5.35H44.8a1.605,1.605,0,0,1,0-3.21Z" transform="translate(-18.186 -0.023)" fill="#d2a76b"/>
    <path id="Path_23624" data-name="Path 23624" d="M33.558,15.844a1.5,1.5,0,0,0-2.06-1.4l-3.97,1.412a17.12,17.12,0,0,1-11.481,0l-3.97-1.412a1.5,1.5,0,0,0-1.15,2.777l5.944,2.547a1.07,1.07,0,0,1,.637.963V36.527a1.669,1.669,0,0,0,1.723,1.707,1.6,1.6,0,0,0,1.487-1.6v-8.56a1.07,1.07,0,0,1,2.14,0v8.437A1.68,1.68,0,0,0,24.6,38.233a1.605,1.605,0,0,0,1.471-1.605V20.75a1.07,1.07,0,0,1,.647-.984l5.933-2.541A1.5,1.5,0,0,0,33.558,15.844Z" transform="translate(-3.738 -3.413)" fill="#d2a76b"/>
  </g>
</svg>
