<svg xmlns="http://www.w3.org/2000/svg" width="37.182" height="24.75" viewBox="0 0 37.182 24.75">
  <g id="noun_commitment_3672040" transform="translate(-5 -13.359)">
    <path id="Path_23601" data-name="Path 23601" d="M20.053,18.179H14.27L11.43,27.61A86.451,86.451,0,0,0,24.505,39.191a.874.874,0,0,0,1.146-.089.912.912,0,0,0,0-1.273L24.1,36.266,22.324,34.48a.745.745,0,0,1,0-1.05.733.733,0,0,1,1.043,0L27.5,37.591a1.155,1.155,0,0,0,1.627,0,1.171,1.171,0,0,0,.015-1.63l-3.653-3.8a.754.754,0,0,1,.022-1.057.733.733,0,0,1,1.043.022l.584.6,3.069,3.2.821.849a1.212,1.212,0,0,0,2.078-.819,1.24,1.24,0,0,0-.37-.9L30,31.383l-1.8-1.757a.738.738,0,0,1-.015-1.049.727.727,0,0,1,1.043-.015l5.3,5.158a1.113,1.113,0,0,0,1.575-.007,1.089,1.089,0,0,0,.34-.826,1.128,1.128,0,0,0-.37-.819L26.036,22.831A6.9,6.9,0,0,0,22.9,24.737a.545.545,0,0,1-.141.119c-2.751,1.794-4.371.342-4.437.283-1.457-1.332-.762-3.431-.126-4.466A15.636,15.636,0,0,1,20.053,18.179Z" transform="translate(-1.675 -1.255)" fill="#d2a76b"/>
    <path id="Path_23602" data-name="Path 23602" d="M29.939,15.982a3.331,3.331,0,0,0-2.389-.052A10.9,10.9,0,0,0,22.1,20.8c-.015.022-1.05,1.738-.133,2.566.022.022.873.688,2.566-.385a7.8,7.8,0,0,1,4.326-2.33.737.737,0,0,1,.569.192l10.28,9.415c.007,0,.007,0,.007.007a3.14,3.14,0,0,0,1.694-1.309L37.786,19.1Z" transform="translate(-4.116 -0.618)" fill="#d2a76b"/>
    <path id="Path_23603" data-name="Path 23603" d="M51.6,15.968a22.1,22.1,0,0,0-6.042,1.146.846.846,0,0,0-.444,1.065L49.49,30.072a.867.867,0,0,0,.8.555h1.361a.761.761,0,0,0,.762-.762V16.723A.75.75,0,0,0,51.6,15.968Z" transform="translate(-10.229 -0.679)" fill="#d2a76b"/>
    <path id="Path_23604" data-name="Path 23604" d="M5.762,28.054H7.049a.841.841,0,0,0,.814-.6l3.587-11.863A.847.847,0,0,0,11,14.572a14.417,14.417,0,0,0-5.206-1.213A.758.758,0,0,0,5,14.121V27.292A.761.761,0,0,0,5.762,28.054Z" fill="#d2a76b"/>
  </g>
</svg>
