<svg xmlns="http://www.w3.org/2000/svg" width="31.837" height="32" viewBox="0 0 31.837 32">
  <g id="noun_integrity_1757008" transform="translate(0 0.199)">
    <ellipse id="Ellipse_971" data-name="Ellipse 971" cx="6.211" cy="6.599" rx="6.211" ry="6.599" transform="translate(7.664 -0.199)" fill="#d2a76b"/>
    <path id="Path_23617" data-name="Path 23617" d="M72.473,56.682h-.022a.444.444,0,0,0-.443.419,17.559,17.559,0,0,0,.6,4.962c.951,3.5,2.927,5.91,5.713,6.969a.452.452,0,0,0,.16.029.447.447,0,0,0,.114-.015,7.678,7.678,0,0,0,3.266-2.125c1.459-1.523,3.218-4.42,3.317-9.57a.442.442,0,0,0-.382-.445c-.039-.006-3.952-.589-5.867-2.756A.449.449,0,0,0,78.6,54h-.015a.448.448,0,0,0-.318.137c-.024.026-2.491,2.55-5.558,2.55C72.632,56.688,72.553,56.686,72.473,56.682ZM75.421,61a.471.471,0,0,1,.665-.023l1.671,1.561L81.1,59.534a.471.471,0,1,1,.63.7l-3.661,3.295a.471.471,0,0,1-.636-.006l-1.987-1.855A.471.471,0,0,1,75.421,61Z" transform="translate(-53.342 -39.614)" fill="#d2a76b"/>
    <path id="Path_23618" data-name="Path 23618" d="M2.363,68.464H26.178a2.294,2.294,0,0,0,2.364-2.215v-1A8.822,8.822,0,0,1,25.3,67.006a1.572,1.572,0,0,1-.9-.045,10.751,10.751,0,0,1-6.688-7.6,17.533,17.533,0,0,1-.673-5.255,1.434,1.434,0,0,1,1.472-1.314l.067,0c.071,0,.141,0,.211,0a7.508,7.508,0,0,0,3.925-1.3,14.02,14.02,0,0,0-3.28-1.353,8.114,8.114,0,0,1-10.313,0C4.016,51.528,0,55.649,0,60.88v5.369A2.293,2.293,0,0,0,2.363,68.464Zm5.4-14.826a.472.472,0,1,1-.5.471A.486.486,0,0,1,7.761,53.638ZM3.505,60.276a7.2,7.2,0,0,1,2.426-5.328.523.523,0,0,1,.708.008.451.451,0,0,1-.009.666,6.292,6.292,0,0,0-2.124,4.654v3.932c0,.356.045.436.054.448a1.357,1.357,0,0,0,.464.043h7.494a.472.472,0,1,1,0,.941H5.024c-1.107,0-1.519-.388-1.519-1.432Z" transform="translate(0 -36.663)" fill="#d2a76b"/>
  </g>
</svg>
