<svg xmlns="http://www.w3.org/2000/svg" width="800" height="801" viewBox="0 0 800 801">
  <g id="right-contact" transform="translate(-800 -2335)">
    <path id="Rectangle_2937" data-name="Rectangle 2937" d="M20,0H800a0,0,0,0,1,0,0V801a0,0,0,0,1,0,0H20A20,20,0,0,1,0,781V20A20,20,0,0,1,20,0Z" transform="translate(800 2335)" fill="#f3f3f3"/>
    <g id="noun_balance_881638" transform="translate(1383.313 3010.457)" opacity="0.1">
      <g id="Group_17009" data-name="Group 17009" transform="translate(9.887 13.349)">
        <path id="Path_23588" data-name="Path 23588" d="M126.6,71.056c0-.117-.117-.234-.117-.352.352-.586.117-1.64-.7-1.523a1.056,1.056,0,0,0-.586.117c-1.289-4.57-3.984-8.67-6.561-12.654-1.406-2.226-2.929-4.452-4.1-6.8a26.113,26.113,0,0,1-2.226-5.976c.117-.117.352-.234.469-.352a.329.329,0,0,0-.234-.586c.469-1.172-.352-2.812-1.289-3.632a1.665,1.665,0,0,0-.7-.234c-.117,0-.117.117-.234.117,0-.117,0-.117-.117-.234s-.117-.352-.234-.469a1.056,1.056,0,0,0-.117-.586c0-.117,0-.117-.117-.117.117,0,.117,0,.234.117.234.117.352-.234.234-.352a23.389,23.389,0,0,0-8.553-4.218A57.725,57.725,0,0,0,90.865,30.75a135.385,135.385,0,0,0-21.793-1.523h-.117V27.821c0-.117,0-.117-.117-.117v-5.39a4.326,4.326,0,0,0,2.812-3.046A3.325,3.325,0,0,0,70.6,16.221l.117-.117c.117-.117,0-.234-.117-.117l-.117.117a9.032,9.032,0,0,0-2.226-1.64,6.346,6.346,0,0,0-4.335-1.055A3.383,3.383,0,0,0,61.1,15.987h0c-.234.117-.234.469-.117.82-.469,2.695.82,5.976,3.164,6.913v8.553c-.117,0-.117-.117-.234-.117A106.48,106.48,0,0,0,42.709,33.8,67.067,67.067,0,0,0,25.6,38.952a2.374,2.374,0,0,0-1.758-.469,2.172,2.172,0,0,1-.234-.82c2.578-1.055,5.155-2.109,7.733-2.929A78.934,78.934,0,0,1,41.772,32.39,129.657,129.657,0,0,1,63.1,30.867a.764.764,0,0,0,0-1.523,105.364,105.364,0,0,0-21.91,1.172,68.7,68.7,0,0,0-10.779,2.578,25.8,25.8,0,0,0-7.5,3.515c-.234,0-.469.117-.469.352-.117.117-.352.234-.469.469-.234.117,0,.469.234.352.117,0,.234-.117.352-.117,0,.234.117.586.117.82a.775.775,0,0,0-.117.7,3.369,3.369,0,0,0-2.109.82c-.7.586-1.172,1.055-.937,1.992a11.517,11.517,0,0,0,.586,1.875,3.455,3.455,0,0,0,1.523,1.64,136.893,136.893,0,0,1-11.014,21.91.474.474,0,1,0,.82.469C15.761,61.1,19.979,53.6,22.088,45.63a3.9,3.9,0,0,0,2.578-.117h0c.352,3.867,1.992,7.616,3.632,11.014,1.758,3.749,3.984,7.147,5.858,10.9-1.289.117-2.578.117-3.867.234a45.462,45.462,0,0,1-6.913.234c-4.335,0-8.9-.586-13.24.352-.117,0-.117.234,0,.352a8.913,8.913,0,0,0,.352,5.273c0,.117,0,.117.117.117a6.514,6.514,0,0,0,1.055,1.992c-.234.234-.234.586.117.7a1.98,1.98,0,0,0,.586.234,15.01,15.01,0,0,0,10.662,5.155,13.9,13.9,0,0,0,9.491-3.4,12.058,12.058,0,0,0,3.046-4.57c.586-1.64,1.172-3.867.586-5.507a.523.523,0,0,0,0-.586.117.117,0,1,1,0-.234c.234-.234.234-.7-.234-.7h-.352c-3.632-7.382-8.553-14.06-10.076-22.145a4.722,4.722,0,0,0,1.992-3.4,3.207,3.207,0,0,0-1.055-2.578c11.717-4.8,25.308-6.561,37.845-6.21H64.5c0,8.319-.117,16.521-.117,24.84-.469,5.858-.469,11.6-.469,17.341,0,5.624-.234,11.248.117,16.755A38.466,38.466,0,0,0,50.325,96.13c-4.8,2.461-9.373,5.155-14.177,7.616-.234-.117-.7.117-.469.469.82,1.758.352,3.515.117,5.273-.117.937-.117,2.226.82,2.695.234.117.469,0,.469-.352,0-1.406-.117-2.695,0-3.984a6.015,6.015,0,0,0-.7-3.749H36.5c0,.117,0,.117.117.117a18.1,18.1,0,0,0,2.578,1.406v.117a14.925,14.925,0,0,0-1.289,4.452,17.55,17.55,0,0,0-.234,2.578h-.117c-.352.352-.586.7-.469,1.055a5.942,5.942,0,0,1-1.055-1.875h-.117c-.352,1.523.469,3.046,1.289,4.218a9.861,9.861,0,0,0,4.921,3.515c5.155,1.992,11.014,1.992,16.521,1.758,1.289,0,2.578-.117,3.749-.234a61.4,61.4,0,0,0,6.561-.234c3.046-.234,6.093-.7,9.139-1.172a27.244,27.244,0,0,0,3.281-.586c.117,0,.234-.117.352-.117a78.92,78.92,0,0,0,12.654-3.867.715.715,0,0,0,.352-1.055c.117-.117.117-.234.117-.469a46.705,46.705,0,0,0-.352-8.085.888.888,0,0,0,.117-1.172,24.74,24.74,0,0,0-6.21-4.687c-2.226-1.406-4.335-2.929-6.679-4.218a32.825,32.825,0,0,0-12.3-3.867,17.481,17.481,0,0,1-.234-2.461c0-.82-.117-1.64-.117-2.461.234-9.842.352-19.8.352-29.644.117-2.812.352-5.624.469-8.436a118.921,118.921,0,0,0-.469-15.818c13.123-.352,27.3,1.758,39.251,7.264v.117l-.117.117a.363.363,0,0,1-.234-.117c-.234-.117-.586.117-.469.352a1.274,1.274,0,0,0,.117.586,2.228,2.228,0,0,0,0,2.109,2.738,2.738,0,0,0,.82.82c-1.055,1.64-1.406,3.749-1.992,5.624-1.992,6.679-5.976,12.654-8.085,19.333-.117,0-.352,0-.352.234a7.76,7.76,0,0,0,.117,5.39,5.726,5.726,0,0,0,1.64,2.109,16.256,16.256,0,0,0,1.289,2.226c2.226,3.515,5.507,5.038,9.491,5.39C118.752,85.116,127.656,79.726,126.6,71.056ZM33.57,73.165c0,.117,0,.117-.117.234-.937.234-1.992.82-2.812,1.055a7.107,7.107,0,0,1-4.921,0c-.117-.117-.352.117-.234.234.937,1.289,2.461,1.406,3.984,1.172a12.734,12.734,0,0,0,3.281-.7,15.588,15.588,0,0,1-1.64,2.226,11.39,11.39,0,0,1-8.319,3.164,13.663,13.663,0,0,1-5.273-1.055,2.693,2.693,0,0,0,2.109-1.406s0-.117-.117,0a3.1,3.1,0,0,1-2.695.469c-.82-.117-1.523-.82-2.343-.7l-.117-.117-.117-.117a11.322,11.322,0,0,0,2.812-.117c.117,0,.117-.234,0-.352-1.289-.234-2.695-.352-3.984-.7-.352-.469-.7-1.055-1.055-1.523a19.569,19.569,0,0,0,5.858.117.236.236,0,1,0,0-.469,20.076,20.076,0,0,1-6.444-1.055,16.592,16.592,0,0,1-.82-2.578h0a9.573,9.573,0,0,0,8.2-.234c.352-.117.117-.586-.234-.469a10.345,10.345,0,0,1-7.5-.234.522.522,0,0,0-.7.234c-.117-.469-.234-.82-.352-1.289a70.1,70.1,0,0,0,13.006,1.406,45.407,45.407,0,0,0,6.913-.117,11.522,11.522,0,0,0,4.452-1.289C33.922,70.118,34.039,71.759,33.57,73.165Zm-8.9-31.4v.352l-.117.234c0,.117-.117.234-.234.352h0l-.117.117-.234.234a.409.409,0,0,1-.234.117.609.609,0,0,1-.469.234h-.586a2.451,2.451,0,0,1-.7-.469,3.609,3.609,0,0,1-.586-1.406,2.385,2.385,0,0,1,.7-.82,4.331,4.331,0,0,1,1.289-.586.115.115,0,0,1,.117.117c.117.117.234.117.352.234l.117.117c.117.117.234.234.352.234h0l.117.117v.117h0c0,.117,0,.117.117.234h0v.117A.907.907,0,0,1,24.665,41.764Zm13.123,71.355a2.362,2.362,0,0,0,.352,1.289A1.4,1.4,0,0,1,37.788,113.119ZM69.072,16.338l.117.117c-.117,0-.234.117-.469.117C68.838,16.572,68.955,16.455,69.072,16.338Zm-1.289-.82a8.913,8.913,0,0,1-2.461-.937A5.347,5.347,0,0,1,67.783,15.518Zm-4.335,5.39c-.117-.117-.234-.352-.352-.469a5.652,5.652,0,0,0,3.4-1.992c.117-.117,0-.117-.117-.117a6.643,6.643,0,0,1-1.523.937,4.6,4.6,0,0,1-2.109.469,5.307,5.307,0,0,1-.351-1.875,9.634,9.634,0,0,0,3.164-.234V17.51a8.77,8.77,0,0,1-3.046-.117,1.486,1.486,0,0,1,.117-.7,5,5,0,0,1,2.109-.7.176.176,0,1,0,0-.352,5.52,5.52,0,0,0-1.992.469c.117-.234.117-.352.234-.586a2.007,2.007,0,0,1,1.875-1.055,3.451,3.451,0,0,0,3.4,1.406h.117c.117,0,.117.117.234.117h0a1.765,1.765,0,0,1-1.992.352c-.352-.117-.469.352-.117.469a2.582,2.582,0,0,0,1.875,0,4.806,4.806,0,0,0,1.289-.117,2.057,2.057,0,0,1,.469.586,12.3,12.3,0,0,0-2.695.937c-.117,0,0,.117.117.117a24.657,24.657,0,0,1,2.812-.7.7.7,0,0,1,.117.469c-.234.117-.352.234-.586.234a3.608,3.608,0,0,1-1.523.352.3.3,0,0,0,0,.586,3.243,3.243,0,0,0,1.523-.352c.117,0,.352-.117.469-.117a2.767,2.767,0,0,1-.7,1.055c-.469.117-.82.352-1.289.469a19.453,19.453,0,0,1-2.578.352.115.115,0,0,0-.117.117.9.9,0,0,1-.586-.234.259.259,0,0,0-.352.352,2.82,2.82,0,0,0,.7.937A2.073,2.073,0,0,1,63.448,20.908Zm4.1,62.1c0,2.109.117,4.218.234,6.327,0,.7.117,1.523.117,2.343H66.612a12.734,12.734,0,0,0-2.109.117c.352-5.39.117-10.662.117-16.052,0-5.741-.117-11.6-.117-17.341-.117-11.6-.117-23.2-.234-34.8a1.274,1.274,0,0,0,.586.117,4.359,4.359,0,0,0,3.515-1.406h.117a44.225,44.225,0,0,0-.234,5.507c0,1.406,0,2.695.117,4.1a.529.529,0,0,0,0,1.055h0c.117,1.406.117,2.695.234,4.1V55.589c-.352,4.8-.7,9.725-.82,14.529C67.549,74.336,67.549,78.672,67.549,83.007Zm25.777,31.284.352-.352h0c0,.117,0,.117.117.234C93.56,114.174,93.443,114.174,93.326,114.291Zm.352-.7a.162.162,0,0,0-.234,0,12.492,12.492,0,0,1-2.226.82,6.8,6.8,0,0,0-1.172-6.8h-.117c1.172,2.226.586,4.57.7,6.913-.937.234-1.875.586-2.812.82a25.474,25.474,0,0,0-.117-5.155.3.3,0,0,0-.586,0A39.619,39.619,0,0,0,87,115.462c-1.172.352-2.343.586-3.515,1.055a12.677,12.677,0,0,0,0-2.109c0-1.406,0-2.812-.117-4.218,0-.469-.586-.469-.7,0-.117,1.289-.117,2.461-.117,3.749a12.279,12.279,0,0,0,.117,2.929h0a18.688,18.688,0,0,1-4.452.82c.352-2.226-.7-4.8.586-6.913.117-.117-.117-.234-.234-.117a6.283,6.283,0,0,0-1.289,3.164,15.116,15.116,0,0,0,0,3.984c-1.289.117-2.578.352-3.984.469-.82-1.875-1.758-4.218-1.172-6.21,0-.117-.117-.234-.234-.117a5.21,5.21,0,0,0-.7,3.749,7.113,7.113,0,0,0,.586,2.109,2.561,2.561,0,0,0,.352.586c-3.515.352-7.03.469-10.545.469-.234-2.343-.82-4.57-1.172-6.913,0-.234-.352-.117-.469.117a26.434,26.434,0,0,0,.234,6.8c-1.289,0-2.578-.117-3.984-.234a15.949,15.949,0,0,0-.234-2.461c-.234-1.758-.586-3.4-.82-5.155,0-.352-.469-.234-.586.117a22.643,22.643,0,0,0,.234,5.624,5.824,5.824,0,0,0,.234,1.875c-1.289-.117-2.578-.234-3.984-.352-.117-2.226-.469-4.921.469-6.913.117-.234-.234-.469-.352-.234-1.64,1.875-1.406,4.687-1.289,7.03-1.055-.117-2.109-.352-3.164-.469a11.315,11.315,0,0,1-.352-8.085c.117-.234-.234-.352-.352-.117a9.948,9.948,0,0,0-.937,7.967h0c-1.055-.234-1.992-.469-2.929-.7.82-2.695.469-6.093.117-8.788a.3.3,0,0,0-.586,0c-.234,1.64-.352,3.281-.469,4.921a27.246,27.246,0,0,1-.586,3.281,15.387,15.387,0,0,1-1.992-1.055.115.115,0,0,0,.117-.117,9.988,9.988,0,0,0,.234-3.749,36.886,36.886,0,0,1,.586-5.038v-.117c1.406.586,2.929,1.055,4.335,1.523a58.6,58.6,0,0,0,8.9,2.343,59.891,59.891,0,0,0,15.818.937,114.467,114.467,0,0,0,14.177-1.875c2.343-.469,4.57-.937,6.8-1.523a16.978,16.978,0,0,0,4.1-1.406C93.56,108.432,93.56,111.01,93.678,113.588ZM76.337,97.77c-2.226.117-4.57,1.055-6.8,1.64-2.812.82-5.507,1.406-8.436,1.992-.234,0-.117.352,0,.352a31.3,31.3,0,0,0,7.382-1.172,74.719,74.719,0,0,0,8.436-2.226.115.115,0,0,0,.117-.117c.937.469,1.992.82,2.929,1.406-.82.352-1.523.586-2.226.82-1.758.586-3.4,1.172-5.155,1.64a62.636,62.636,0,0,1-11.365,2.109v.117a31.843,31.843,0,0,0,11.014-1.172c1.992-.469,3.867-1.172,5.741-1.758,1.055-.352,2.226-.7,3.281-1.172a45.707,45.707,0,0,1,4.1,2.226c-2.812.937-5.624,2.109-8.436,3.046A45.85,45.85,0,0,1,63.8,107.612a.176.176,0,0,0,0,.352,33.6,33.6,0,0,0,12.771-1.523,65.644,65.644,0,0,0,9.491-3.515c.352.234.7.352,1.055.586a3.665,3.665,0,0,0,1.172.586,25.855,25.855,0,0,1-3.164,1.406c-1.64.469-3.281.82-4.8,1.289a.252.252,0,0,0,.117.469c2.695-.469,6.444-.82,8.788-2.695a13.965,13.965,0,0,0,2.343.937,14.838,14.838,0,0,1-2.109.7c-2.109.586-4.218,1.055-6.327,1.523A111.88,111.88,0,0,1,69.307,109.6a67.454,67.454,0,0,1-15.349-.7,73.272,73.272,0,0,1-8.436-1.992c-2.812-.82-5.507-1.992-8.319-2.578,4.452-1.523,8.553-3.867,13.006-5.624a41.864,41.864,0,0,1,16.521-2.695A22.257,22.257,0,0,1,76.337,97.77Zm34.447-57.178a2.462,2.462,0,0,1,.82,1.64.409.409,0,0,0-.117.234V42.7c0,.117-.117.117-.234.234h-.586a1.539,1.539,0,0,1-1.172-.352.609.609,0,0,1-.234-.469C109.261,41.529,110.2,40.943,110.784,40.592ZM89.811,33.445A99.1,99.1,0,0,0,69.424,31.8v-.469h0v-.7h.117a129.657,129.657,0,0,1,21.325,1.523A78.934,78.934,0,0,1,101.293,34.5c2.695.82,5.155,1.875,7.733,2.929a.115.115,0,0,0-.117.117.986.986,0,0,0-.469.82.951.951,0,0,0,.469.937c.117.117.234.352.352.469h0A64.08,64.08,0,0,0,89.811,33.445Zm17.458,19.1c.586-1.64.82-3.281,1.289-5.038l.7-2.461a2.429,2.429,0,0,1,.234-.7c.234,0,.352.117.586.117a2.766,2.766,0,0,0,1.406-.117c.352,4.1,3.164,8.319,5.155,11.717,2.578,4.218,5.624,8.553,7.03,13.357A116.107,116.107,0,0,1,110.9,69.3c-3.4-.117-7.03.586-10.545.234C102.231,63.674,105.394,58.4,107.269,52.543Zm17.575,20.036h0c-1.289.234-2.226,1.055-3.515,1.406a13.513,13.513,0,0,1-4.335.234.371.371,0,0,0-.117.7,12.608,12.608,0,0,0,4.687,0,6.167,6.167,0,0,0,3.164-1.523,5.573,5.573,0,0,1-.586,2.109,10.446,10.446,0,0,1-3.164,1.758,17.677,17.677,0,0,1-4.921.586c-.234,0-.234.234,0,.352a10.087,10.087,0,0,0,6.679-.234l-.7.7c-2.578.82-4.8,3.281-7.616,1.758-.234-.117-.469.117-.234.352a3.524,3.524,0,0,0,2.578.937,16.525,16.525,0,0,1-4.8.82,10.787,10.787,0,0,1-7.616-2.343,31.407,31.407,0,0,0,4.687-.234.176.176,0,0,0,0-.352,20.133,20.133,0,0,0-5.273-.234h-.117a1.618,1.618,0,0,1-.352-.469,6.5,6.5,0,0,1-.7-.937,10.4,10.4,0,0,0,1.758.234,7.05,7.05,0,0,0,4.8-1.172c.117,0,0-.234-.117-.117-1.523.82-3.281.586-5.038.352a6.716,6.716,0,0,1-1.64-.469h0a13.322,13.322,0,0,1-1.758-1.875c0-.117-.117-.234-.117-.352a13.742,13.742,0,0,1-.586-1.289c2.578,1.875,6.327,1.406,9.256,1.172.117,0,.117-.117,0-.117-1.406-.117-2.929-.117-4.335-.234a9.671,9.671,0,0,1-5.038-1.758h-.117a3.988,3.988,0,0,1,0-2.343h0a2.057,2.057,0,0,0-.469.586c0-.234-.117-.586-.117-.82a.775.775,0,0,0,.7.117c3.046,1.523,6.913.937,10.076.937,4.8.117,9.608.7,14.295.234a.729.729,0,0,0,.7.469Z" transform="translate(-9.887 -13.349)"/>
        <path id="Path_23589" data-name="Path 23589" d="M57.9,97.541a27.275,27.275,0,0,0,.7,6.21c.117.586,1.172.469,1.055-.117a36.186,36.186,0,0,0-1.055-6.21C58.486,97.19,57.9,97.19,57.9,97.541Z" transform="translate(-1.644 1.058)"/>
        <path id="Path_23590" data-name="Path 23590" d="M22.52,64.32c-.234,0-.117.352,0,.352a12.377,12.377,0,0,0,9.022-2.461c.469-.352-.117-.937-.586-.7a25.932,25.932,0,0,1-4.1,1.875A28.672,28.672,0,0,1,22.52,64.32Z" transform="translate(-7.742 -5.09)"/>
        <path id="Path_23591" data-name="Path 23591" d="M22,68.755c0,2.695,6.093.352,6.913-.7.117-.117,0-.352-.234-.352-1.758-.117-4.921,2.929-6.444,1.055C22.117,68.521,22,68.638,22,68.755Z" transform="translate(-7.808 -4.018)"/>
      </g>
    </g>
  </g>
</svg>
